<?xml version="1.0" encoding="UTF-8" standalone="no"?>
<!-- Generator: Adobe Illustrator 28.0.0, SVG Export Plug-In . SVG Version: 6.00 Build 0)  -->

<svg
   version="1.1"
   id="Layer_1"
   x="0px"
   y="0px"
   width="196.3px"
   height="69.8px"
   viewBox="0 0 196.3 69.8"
   style="enable-background:new 0 0 196.3 69.8"
   xml:space="preserve"
   sodipodi:docname="os.svg"
   inkscape:version="1.4 (86a8ad7, 2024-10-11)"
   xmlns:inkscape="http://www.inkscape.org/namespaces/inkscape"
   xmlns:sodipodi="http://sodipodi.sourceforge.net/DTD/sodipodi-0.dtd"
   xmlns="http://www.w3.org/2000/svg"
   xmlns:svg="http://www.w3.org/2000/svg"><sodipodi:namedview
   id="namedview14"
   pagecolor="#ffffff"
   bordercolor="#666666"
   borderopacity="1.0"
   inkscape:showpageshadow="2"
   inkscape:pageopacity="0.0"
   inkscape:pagecheckerboard="0"
   inkscape:deskcolor="#d1d1d1"
   inkscape:zoom="3.1987306"
   inkscape:cx="76.123947"
   inkscape:cy="-27.041977"
   inkscape:window-width="1147"
   inkscape:window-height="1041"
   inkscape:window-x="156"
   inkscape:window-y="0"
   inkscape:window-maximized="0"
   inkscape:current-layer="Layer_1"
   showgrid="false" /><defs
   id="defs14"><linearGradient
     id="swatch6"
     inkscape:swatch="solid"><stop
       style="stop-color:#ffffff;stop-opacity:1;"
       offset="0"
       id="stop7" /></linearGradient></defs>
<style
   type="text/css"
   id="style1">
	.st0{fill:#231F20;}
</style>
<g
   id="g10">
	<text
   xml:space="preserve"
   style="font-weight:bold;font-size:63.371px;line-height:125%;font-family:'Adobe Gothic Std';-inkscape-font-specification:'Adobe Gothic Std, Bold';letter-spacing:0px;word-spacing:0px;display:none;fill:#e5e5e5;fill-opacity:1;stroke:none;stroke-width:1.92767px;stroke-linecap:round;stroke-linejoin:miter;stroke-miterlimit:4;stroke-opacity:1"
   x="0.013090312"
   y="60.765141"
   id="text13"
   transform="scale(0.98202956,1.0182993)"><tspan
     sodipodi:role="line"
     id="tspan13"
     x="0.013090312"
     y="60.765141"
     style="fill:#e5e5e5;fill-opacity:1;stroke:none;stroke-width:1.92767px;stroke-linecap:round;stroke-miterlimit:4">Quad</tspan></text><path
   d="M 144.90125,9.8300747 V 28.904745 h -0.12675 c -1.39416,-2.408098 -4.3726,-4.119115 -8.49171,-4.119115 -7.60452,0 -14.25847,6.590584 -14.25847,18.631074 0,10.709699 5.70339,18.060734 13.68813,18.060734 4.30923,0 8.11149,-2.217985 9.94925,-5.70339 h 0.19011 l 0.4436,5.006309 h 8.23823 c -0.12674,-2.598211 -0.25349,-6.527212 -0.25349,-10.075988 V 9.8300747 Z m 0,36.5016953 c 0,5.576648 -3.54878,7.60452 -6.3371,7.60452 -4.43597,0 -7.09756,-4.245857 -7.09756,-10.646328 0,-6.146987 2.4081,-11.089925 7.2243,-11.089925 3.10518,0 6.21036,2.53484 6.21036,7.667891 z"
   id="text1"
   style="font-weight:bold;font-size:63.371px;line-height:125%;font-family:'Adobe Gothic Std';-inkscape-font-specification:'Adobe Gothic Std, Bold';letter-spacing:0px;word-spacing:0px;fill:#e5e5e5;stroke-width:1.92767px;stroke-linecap:round"
   transform="scale(0.98202944,1.0182994)"
   aria-label="d" /><path
   d="m 90.702637,33.847683 c 2.281356,-1.394162 5.449906,-2.408098 8.681827,-2.408098 5.133046,0 6.337096,2.661582 6.337096,6.146987 -11.216663,0 -19.26478,4.245857 -19.26478,13.30791 0,5.703389 4.055744,10.582956 10.582957,10.582956 3.929003,0 7.351033,-1.584275 9.378903,-4.372599 h 0.19012 l 0.57034,3.675518 h 8.42834 c -0.38023,-2.154614 -0.50697,-5.259793 -0.50697,-8.364971 V 39.487702 c 0,-7.731262 -2.97844,-14.702072 -13.94162,-14.702072 -5.513275,0 -9.885874,1.584275 -12.230601,2.978437 z m 15.272413,14.828814 c 0,4.499341 -3.67552,6.083616 -5.89351,6.083616 -2.344722,0 -4.435965,-1.457533 -4.435965,-4.816196 0,-5.133051 5.259795,-6.3371 10.329475,-6.3371 z"
   id="text2"
   style="font-weight:bold;font-size:63.371px;line-height:125%;font-family:'Adobe Gothic Std';-inkscape-font-specification:'Adobe Gothic Std, Bold';letter-spacing:0px;word-spacing:0px;fill:#e5e5e5;stroke-width:1.92767px;stroke-linecap:round"
   transform="scale(0.98202944,1.0182994)"
   aria-label="a" /><path
   d="m 69.499455,25.482711 v 21.736253 c 0,3.992373 -2.724953,6.590584 -5.766761,6.590584 -3.86563,0 -5.386534,-3.358663 -5.386534,-8.681827 v -19.64501 h -9.378908 v 21.039172 c 0,10.582956 4.562712,14.955555 11.280038,14.955555 5.449905,0 8.681826,-3.105179 10.139359,-5.386535 h 0.190113 l 0.443597,4.689454 h 8.174859 C 79.068476,57.80192 78.878363,54.189774 78.878363,50.007288 V 25.482711 Z"
   id="text3"
   style="font-weight:bold;font-size:63.371px;line-height:125%;font-family:'Adobe Gothic Std';-inkscape-font-specification:'Adobe Gothic Std, Bold';letter-spacing:0px;word-spacing:0px;fill:#e5e5e5;stroke-width:1.92767px;stroke-linecap:round"
   transform="scale(0.98202944,1.0182994)"
   aria-label="u" /><path
   d="M 44.535037,61.350662 C 40.92289,60.463468 36.867147,59.512903 33.128258,58.308854 v -0.316855 c 6.146986,-2.724953 10.582956,-10.456215 10.582956,-22.24322 0,-13.117797 -6.717325,-24.461206 -20.025235,-24.461206 -12.991055,0 -20.9124296,10.77307 -20.9124296,25.3484 0,16.032862 8.6818266,24.461205 19.2014126,24.841431 0.823823,0.06337 1.837759,0.316855 2.851695,0.823823 5.386535,2.344727 10.963183,4.499341 16.856685,6.3371 z M 23.369124,18.955464 c 7.097552,0 10.519586,8.048117 10.519586,17.236912 0,9.949246 -3.675518,17.617137 -10.582957,17.617137 -6.907439,0 -10.709699,-7.731262 -10.709699,-17.363653 0,-9.125424 3.548776,-17.490396 10.77307,-17.490396 z"
   id="text4"
   style="font-weight:bold;font-size:63.371px;line-height:125%;font-family:'Adobe Gothic Std';-inkscape-font-specification:'Adobe Gothic Std, Bold';letter-spacing:0px;word-spacing:0px;fill:#e5e5e5;stroke-width:1.92767px;stroke-linecap:round"
   transform="scale(0.98203,1.0183)"
   aria-label="Q" /><path
   class="st0"
   d="M18.4,56.9c0,1.3-0.2,2.4-0.7,3.4c-0.5,1-1.1,1.8-2,2.4c-0.8,0.7-1.8,1.1-2.9,1.5c-1.1,0.3-2.3,0.5-3.5,0.5   c-0.9,0-1.6-0.1-2.4-0.2C6.2,64.4,5.6,64.2,5,64c-0.6-0.2-1-0.4-1.4-0.6S3,63,2.8,62.8c-0.2-0.2-0.3-0.4-0.4-0.7   c-0.1-0.3-0.1-0.8-0.1-1.3c0-0.4,0-0.7,0-1c0-0.3,0.1-0.5,0.1-0.6c0.1-0.2,0.1-0.3,0.2-0.4c0.1-0.1,0.2-0.1,0.3-0.1   c0.2,0,0.4,0.1,0.8,0.3c0.3,0.2,0.7,0.4,1.2,0.7s1.1,0.5,1.8,0.7c0.7,0.2,1.5,0.3,2.4,0.3c0.6,0,1.2-0.1,1.6-0.2   c0.5-0.1,0.9-0.4,1.2-0.6c0.3-0.3,0.6-0.6,0.8-1c0.2-0.4,0.3-0.8,0.3-1.3c0-0.6-0.2-1-0.5-1.4c-0.3-0.4-0.7-0.8-1.2-1.1   c-0.5-0.3-1-0.6-1.7-0.9c-0.6-0.3-1.3-0.6-1.9-0.9s-1.3-0.7-1.9-1c-0.6-0.4-1.2-0.9-1.7-1.4c-0.5-0.5-0.9-1.2-1.2-1.9   c-0.3-0.7-0.5-1.6-0.5-2.6c0-1.2,0.2-2.2,0.7-3.1c0.4-0.9,1-1.6,1.8-2.2c0.7-0.6,1.6-1,2.6-1.3c1-0.3,2.1-0.4,3.2-0.4   c0.6,0,1.2,0,1.8,0.1s1.1,0.2,1.6,0.4s1,0.3,1.4,0.5s0.7,0.3,0.8,0.5s0.2,0.2,0.3,0.3c0,0.1,0.1,0.2,0.1,0.4c0,0.1,0.1,0.3,0.1,0.6   c0,0.2,0,0.5,0,0.8c0,0.4,0,0.7,0,0.9c0,0.3-0.1,0.5-0.1,0.6c0,0.2-0.1,0.3-0.2,0.4c-0.1,0.1-0.2,0.1-0.3,0.1s-0.4-0.1-0.7-0.3   S15,44.2,14.6,44c-0.4-0.2-1-0.4-1.5-0.6c-0.6-0.2-1.2-0.3-1.9-0.3c-0.5,0-1,0.1-1.4,0.2c-0.4,0.1-0.7,0.3-1,0.6   c-0.3,0.2-0.5,0.5-0.6,0.8c-0.1,0.3-0.2,0.7-0.2,1c0,0.5,0.1,1,0.4,1.4C8.6,47.6,9,48,9.5,48.3c0.5,0.3,1.1,0.6,1.7,0.9   c0.6,0.3,1.3,0.6,1.9,0.9s1.3,0.7,1.9,1c0.6,0.4,1.2,0.9,1.7,1.4c0.5,0.5,0.9,1.2,1.2,1.9C18.3,55.1,18.4,55.9,18.4,56.9z"
   id="path1" />
	<path
   class="st0"
   d="M36.4,63.7c0,0.2-0.1,0.3-0.2,0.4c-0.1,0.1-0.3,0.2-0.6,0.2c-0.3,0-0.7,0.1-1.2,0.1c-0.6,0-1,0-1.2-0.1   c-0.3,0-0.4-0.1-0.6-0.2c-0.1-0.1-0.2-0.2-0.2-0.4v-1.4c-0.7,0.7-1.5,1.3-2.4,1.8c-0.9,0.4-1.9,0.6-3,0.6c-0.9,0-1.7-0.1-2.5-0.4   c-0.8-0.2-1.4-0.6-2-1c-0.6-0.5-1-1-1.3-1.7s-0.5-1.5-0.5-2.4c0-1,0.2-1.9,0.6-2.6c0.4-0.7,1-1.3,1.7-1.8c0.8-0.5,1.7-0.8,2.9-1.1   s2.5-0.3,4-0.3h1.7v-1c0-0.5-0.1-1-0.2-1.4c-0.1-0.4-0.3-0.7-0.5-1c-0.2-0.3-0.6-0.5-1-0.6c-0.4-0.1-0.9-0.2-1.5-0.2   c-0.8,0-1.5,0.1-2.1,0.3c-0.6,0.2-1.2,0.4-1.7,0.6s-0.9,0.4-1.2,0.6c-0.3,0.2-0.6,0.3-0.8,0.3c-0.1,0-0.3,0-0.4-0.1   c-0.1-0.1-0.2-0.2-0.3-0.4c-0.1-0.2-0.1-0.4-0.2-0.6c0-0.2-0.1-0.5-0.1-0.8c0-0.4,0-0.7,0.1-0.9s0.2-0.4,0.4-0.6   c0.2-0.2,0.5-0.4,0.9-0.6c0.4-0.2,1-0.4,1.6-0.6s1.2-0.3,2-0.5c0.7-0.1,1.4-0.2,2.2-0.2c1.3,0,2.5,0.1,3.4,0.4   c0.9,0.3,1.7,0.7,2.3,1.2c0.6,0.5,1.1,1.2,1.3,2.1s0.4,1.9,0.4,3V63.7z M31.7,56.4h-1.8c-0.8,0-1.4,0.1-2,0.2s-1,0.3-1.3,0.5   S26,57.6,25.9,58c-0.2,0.3-0.2,0.7-0.2,1.1c0,0.7,0.2,1.3,0.7,1.7c0.5,0.4,1.1,0.6,1.9,0.6c0.7,0,1.3-0.2,1.9-0.5   c0.6-0.3,1.1-0.8,1.7-1.5V56.4z"
   id="path2" />
	<path
   class="st0"
   d="M46,63.7c0,0.1,0,0.2-0.1,0.3c-0.1,0.1-0.2,0.2-0.4,0.2s-0.4,0.1-0.7,0.1c-0.3,0-0.7,0-1.2,0s-0.9,0-1.2,0   c-0.3,0-0.5-0.1-0.7-0.1c-0.2-0.1-0.3-0.1-0.4-0.2c-0.1-0.1-0.1-0.2-0.1-0.3v-25c0-0.1,0-0.2,0.1-0.3s0.2-0.2,0.4-0.3   c0.2-0.1,0.4-0.1,0.7-0.2s0.7-0.1,1.2-0.1s0.9,0,1.2,0.1s0.5,0.1,0.7,0.2c0.2,0.1,0.3,0.2,0.4,0.3s0.1,0.2,0.1,0.3V63.7z"
   id="path3" />
	<path
   class="st0"
   d="M65.3,63.7c0,0.2-0.1,0.3-0.2,0.4c-0.1,0.1-0.3,0.2-0.6,0.2c-0.3,0-0.7,0.1-1.2,0.1c-0.6,0-1,0-1.2-0.1   c-0.3,0-0.4-0.1-0.6-0.2c-0.1-0.1-0.2-0.2-0.2-0.4v-1.4c-0.7,0.7-1.5,1.3-2.4,1.8c-0.9,0.4-1.9,0.6-3,0.6c-0.9,0-1.7-0.1-2.5-0.4   c-0.8-0.2-1.4-0.6-2-1c-0.6-0.5-1-1-1.3-1.7s-0.5-1.5-0.5-2.4c0-1,0.2-1.9,0.6-2.6c0.4-0.7,1-1.3,1.7-1.8c0.8-0.5,1.7-0.8,2.9-1.1   s2.5-0.3,4-0.3h1.7v-1c0-0.5-0.1-1-0.2-1.4c-0.1-0.4-0.3-0.7-0.5-1c-0.2-0.3-0.6-0.5-1-0.6c-0.4-0.1-0.9-0.2-1.5-0.2   c-0.8,0-1.5,0.1-2.1,0.3c-0.6,0.2-1.2,0.4-1.7,0.6s-0.9,0.4-1.2,0.6c-0.3,0.2-0.6,0.3-0.8,0.3c-0.1,0-0.3,0-0.4-0.1   c-0.1-0.1-0.2-0.2-0.3-0.4c-0.1-0.2-0.1-0.4-0.2-0.6c0-0.2-0.1-0.5-0.1-0.8c0-0.4,0-0.7,0.1-0.9s0.2-0.4,0.4-0.6   c0.2-0.2,0.5-0.4,0.9-0.6c0.4-0.2,1-0.4,1.6-0.6s1.2-0.3,2-0.5c0.7-0.1,1.4-0.2,2.2-0.2c1.3,0,2.5,0.1,3.4,0.4   c0.9,0.3,1.7,0.7,2.3,1.2c0.6,0.5,1.1,1.2,1.3,2.1s0.4,1.9,0.4,3V63.7z M60.6,56.4h-1.8c-0.8,0-1.4,0.1-2,0.2s-1,0.3-1.3,0.5   s-0.6,0.5-0.8,0.8c-0.2,0.3-0.2,0.7-0.2,1.1c0,0.7,0.2,1.3,0.7,1.7c0.5,0.4,1.1,0.6,1.9,0.6c0.7,0,1.3-0.2,1.9-0.5   c0.6-0.3,1.1-0.8,1.7-1.5V56.4z"
   id="path4" />
	<path
   class="st0"
   d="M97.1,63.7c0,0.1,0,0.2-0.1,0.3c-0.1,0.1-0.2,0.2-0.4,0.2s-0.4,0.1-0.7,0.1c-0.3,0-0.7,0-1.2,0   c-0.5,0-0.9,0-1.2,0c-0.3,0-0.5-0.1-0.7-0.1s-0.3-0.1-0.4-0.2c-0.1-0.1-0.1-0.2-0.1-0.3V53.6c0-0.6-0.1-1.1-0.2-1.6   c-0.1-0.5-0.3-0.9-0.5-1.2c-0.2-0.3-0.5-0.6-0.8-0.8c-0.3-0.2-0.7-0.3-1.2-0.3c-0.6,0-1.1,0.2-1.7,0.7c-0.6,0.4-1.2,1.1-1.9,1.9   v11.3c0,0.1,0,0.2-0.1,0.3c-0.1,0.1-0.2,0.2-0.4,0.2c-0.2,0.1-0.4,0.1-0.7,0.1c-0.3,0-0.7,0-1.1,0c-0.5,0-0.9,0-1.2,0   c-0.3,0-0.5-0.1-0.7-0.1c-0.2-0.1-0.3-0.1-0.4-0.2c-0.1-0.1-0.1-0.2-0.1-0.3V53.6c0-0.6-0.1-1.1-0.2-1.6c-0.1-0.5-0.3-0.9-0.5-1.2   c-0.2-0.3-0.5-0.6-0.8-0.8c-0.3-0.2-0.7-0.3-1.2-0.3c-0.6,0-1.2,0.2-1.8,0.7c-0.6,0.4-1.2,1.1-1.9,1.9v11.3c0,0.1,0,0.2-0.1,0.3   c-0.1,0.1-0.2,0.2-0.4,0.2s-0.4,0.1-0.7,0.1c-0.3,0-0.7,0-1.2,0s-0.9,0-1.2,0c-0.3,0-0.5-0.1-0.7-0.1c-0.2-0.1-0.3-0.1-0.4-0.2   c-0.1-0.1-0.1-0.2-0.1-0.3v-17c0-0.1,0-0.2,0.1-0.3c0.1-0.1,0.2-0.2,0.3-0.2s0.4-0.1,0.6-0.1c0.3,0,0.6,0,1,0c0.4,0,0.7,0,1,0   c0.3,0,0.5,0.1,0.6,0.1s0.3,0.1,0.3,0.2c0.1,0.1,0.1,0.2,0.1,0.3v2c0.9-1,1.9-1.8,2.8-2.3c0.9-0.5,1.9-0.8,2.9-0.8   c0.7,0,1.3,0.1,1.9,0.2c0.6,0.1,1.1,0.4,1.5,0.6c0.4,0.3,0.8,0.6,1.1,1s0.6,0.8,0.8,1.3c0.5-0.5,1-1,1.5-1.4s1-0.7,1.4-1   c0.5-0.2,1-0.4,1.4-0.6c0.5-0.1,1-0.2,1.5-0.2c1.1,0,2.1,0.2,2.9,0.6s1.4,0.9,1.9,1.6c0.5,0.7,0.8,1.4,1,2.3   c0.2,0.9,0.3,1.8,0.3,2.8V63.7z"
   id="path5" />
	<path
   class="st0"
   d="M116.3,63.7c0,0.2-0.1,0.3-0.2,0.4c-0.1,0.1-0.3,0.2-0.6,0.2c-0.3,0-0.7,0.1-1.2,0.1c-0.6,0-1,0-1.2-0.1   c-0.3,0-0.4-0.1-0.6-0.2c-0.1-0.1-0.2-0.2-0.2-0.4v-1.4c-0.7,0.7-1.5,1.3-2.4,1.8s-1.9,0.6-3,0.6c-0.9,0-1.7-0.1-2.5-0.4   c-0.8-0.2-1.4-0.6-2-1c-0.6-0.5-1-1-1.3-1.7s-0.5-1.5-0.5-2.4c0-1,0.2-1.9,0.6-2.6c0.4-0.7,1-1.3,1.7-1.8c0.8-0.5,1.7-0.8,2.9-1.1   s2.5-0.3,4-0.3h1.7v-1c0-0.5-0.1-1-0.2-1.4c-0.1-0.4-0.3-0.7-0.5-1c-0.2-0.3-0.6-0.5-1-0.6c-0.4-0.1-0.9-0.2-1.5-0.2   c-0.8,0-1.5,0.1-2.1,0.3s-1.2,0.4-1.7,0.6s-0.9,0.4-1.2,0.6c-0.3,0.2-0.6,0.3-0.8,0.3c-0.1,0-0.3,0-0.4-0.1   c-0.1-0.1-0.2-0.2-0.3-0.4c-0.1-0.2-0.1-0.4-0.2-0.6c0-0.2-0.1-0.5-0.1-0.8c0-0.4,0-0.7,0.1-0.9c0.1-0.2,0.2-0.4,0.4-0.6   c0.2-0.2,0.5-0.4,0.9-0.6c0.4-0.2,1-0.4,1.6-0.6c0.6-0.2,1.2-0.3,2-0.5c0.7-0.1,1.4-0.2,2.2-0.2c1.3,0,2.5,0.1,3.4,0.4   c0.9,0.3,1.7,0.7,2.3,1.2c0.6,0.5,1.1,1.2,1.3,2.1s0.4,1.9,0.4,3V63.7z M111.6,56.4h-1.8c-0.8,0-1.4,0.1-2,0.2   c-0.5,0.1-1,0.3-1.3,0.5c-0.3,0.2-0.6,0.5-0.8,0.8c-0.2,0.3-0.2,0.7-0.2,1.1c0,0.7,0.2,1.3,0.7,1.7s1.1,0.6,1.9,0.6   c0.7,0,1.3-0.2,1.9-0.5s1.1-0.8,1.7-1.5V56.4z"
   id="path6" />
	<path
   class="st0"
   d="M137.3,63.7c0,0.1,0,0.2-0.1,0.3c-0.1,0.1-0.2,0.2-0.4,0.2s-0.4,0.1-0.7,0.1c-0.3,0-0.7,0-1.2,0   c-0.5,0-0.9,0-1.2,0c-0.3,0-0.6-0.1-0.7-0.1c-0.2-0.1-0.3-0.1-0.4-0.2c-0.1-0.1-0.1-0.2-0.1-0.3V54c0-0.8-0.1-1.5-0.2-1.9   c-0.1-0.5-0.3-0.9-0.5-1.2c-0.2-0.3-0.5-0.6-0.9-0.8c-0.4-0.2-0.8-0.3-1.3-0.3c-0.6,0-1.2,0.2-1.8,0.7c-0.6,0.4-1.3,1.1-1.9,1.9   v11.3c0,0.1,0,0.2-0.1,0.3c-0.1,0.1-0.2,0.2-0.4,0.2c-0.2,0.1-0.4,0.1-0.7,0.1c-0.3,0-0.7,0-1.2,0s-0.9,0-1.2,0   c-0.3,0-0.5-0.1-0.7-0.1c-0.2-0.1-0.3-0.1-0.4-0.2c-0.1-0.1-0.1-0.2-0.1-0.3v-17c0-0.1,0-0.2,0.1-0.3c0.1-0.1,0.2-0.2,0.3-0.2   c0.2-0.1,0.4-0.1,0.6-0.1c0.3,0,0.6,0,1,0c0.4,0,0.7,0,1,0c0.3,0,0.5,0.1,0.6,0.1c0.1,0.1,0.3,0.1,0.3,0.2c0.1,0.1,0.1,0.2,0.1,0.3   v2c0.9-1,1.9-1.8,2.9-2.3c1-0.5,2-0.8,3-0.8c1.2,0,2.1,0.2,2.9,0.6c0.8,0.4,1.4,0.9,1.9,1.6c0.5,0.7,0.8,1.4,1.1,2.3   c0.2,0.9,0.3,1.9,0.3,3.2V63.7z"
   id="path7" />
	<path
   class="st0"
   d="M158.1,63.7c0,0.1,0,0.3-0.1,0.4c-0.1,0.1-0.2,0.2-0.3,0.2c-0.2,0.1-0.4,0.1-0.6,0.1c-0.3,0-0.6,0-1,0   c-0.4,0-0.7,0-1,0s-0.5-0.1-0.6-0.1c-0.2-0.1-0.3-0.1-0.3-0.2c-0.1-0.1-0.1-0.2-0.1-0.4v-1.9c-0.9,0.9-1.8,1.7-2.8,2.2   c-1,0.5-2,0.8-3.2,0.8c-1.3,0-2.4-0.2-3.3-0.8c-0.9-0.5-1.6-1.2-2.2-2c-0.6-0.9-1-1.8-1.2-3c-0.3-1.1-0.4-2.3-0.4-3.6   c0-1.5,0.2-2.9,0.5-4.1c0.3-1.2,0.8-2.2,1.4-3.1s1.4-1.5,2.3-2c0.9-0.5,2-0.7,3.2-0.7c1,0,1.8,0.2,2.6,0.6c0.8,0.4,1.5,1,2.3,1.7   v-9.2c0-0.1,0-0.2,0.1-0.3c0.1-0.1,0.2-0.2,0.4-0.3c0.2-0.1,0.4-0.1,0.7-0.2s0.7-0.1,1.2-0.1s0.9,0,1.2,0.1s0.5,0.1,0.7,0.2   c0.2,0.1,0.3,0.2,0.4,0.3s0.1,0.2,0.1,0.3V63.7z M153.3,52.3c-0.7-0.9-1.3-1.5-2-2c-0.6-0.5-1.3-0.7-2-0.7c-0.6,0-1.2,0.2-1.6,0.5   c-0.5,0.3-0.8,0.7-1.1,1.2c-0.3,0.5-0.5,1.1-0.6,1.7c-0.1,0.6-0.2,1.3-0.2,2c0,0.7,0.1,1.4,0.2,2.1s0.3,1.3,0.6,1.8   c0.3,0.5,0.6,0.9,1,1.3s1,0.5,1.6,0.5c0.3,0,0.7,0,1-0.1c0.3-0.1,0.6-0.3,1-0.5c0.3-0.2,0.7-0.5,1-0.8c0.3-0.3,0.7-0.8,1.1-1.3   V52.3z"
   id="path8" />
	<path
   class="st0"
   d="M178.6,54.7c0,0.6-0.1,1-0.4,1.3c-0.3,0.3-0.6,0.4-1.1,0.4h-10.3c0,0.7,0.1,1.4,0.3,2c0.2,0.6,0.4,1.1,0.8,1.5   c0.4,0.4,0.9,0.7,1.4,0.9c0.6,0.2,1.3,0.3,2.1,0.3c0.8,0,1.6-0.1,2.2-0.2c0.6-0.1,1.2-0.3,1.6-0.4c0.5-0.1,0.8-0.3,1.2-0.4   c0.3-0.1,0.6-0.2,0.7-0.2c0.1,0,0.2,0,0.3,0.1c0.1,0,0.1,0.1,0.2,0.2c0,0.1,0.1,0.3,0.1,0.5c0,0.2,0,0.5,0,0.8c0,0.3,0,0.5,0,0.7   c0,0.2,0,0.4-0.1,0.5c0,0.1-0.1,0.3-0.1,0.4c-0.1,0.1-0.1,0.2-0.2,0.3c-0.1,0.1-0.3,0.2-0.7,0.4s-0.8,0.3-1.4,0.4   c-0.6,0.1-1.2,0.3-2,0.4c-0.7,0.1-1.5,0.2-2.4,0.2c-1.5,0-2.8-0.2-4-0.6c-1.1-0.4-2.1-1-2.8-1.7s-1.3-1.8-1.7-2.9   c-0.4-1.2-0.6-2.6-0.6-4.2c0-1.5,0.2-2.9,0.6-4.1c0.4-1.2,1-2.2,1.7-3.1c0.7-0.8,1.7-1.5,2.7-1.9c1.1-0.4,2.3-0.7,3.6-0.7   c1.4,0,2.6,0.2,3.6,0.6c1,0.4,1.8,1,2.5,1.7c0.6,0.7,1.1,1.6,1.4,2.6s0.5,2.1,0.5,3.3V54.7z M173.9,53.3c0-1.3-0.2-2.4-0.8-3.2   c-0.6-0.8-1.5-1.2-2.7-1.2c-0.6,0-1.1,0.1-1.6,0.3c-0.5,0.2-0.8,0.5-1.1,0.9c-0.3,0.4-0.5,0.8-0.7,1.4c-0.2,0.5-0.3,1.1-0.3,1.7   H173.9z"
   id="path9" />
	<path
   class="st0"
   d="M193.4,48.3c0,0.5,0,0.8,0,1.1c0,0.3-0.1,0.5-0.1,0.7s-0.1,0.3-0.2,0.3c-0.1,0.1-0.2,0.1-0.3,0.1   c-0.1,0-0.2,0-0.3-0.1c-0.1,0-0.3-0.1-0.4-0.1c-0.2-0.1-0.3-0.1-0.5-0.1c-0.2,0-0.4-0.1-0.6-0.1c-0.3,0-0.5,0.1-0.8,0.2   c-0.3,0.1-0.5,0.3-0.8,0.5c-0.3,0.2-0.6,0.5-0.9,0.9c-0.3,0.4-0.6,0.9-1,1.4v10.6c0,0.1,0,0.2-0.1,0.3c-0.1,0.1-0.2,0.2-0.4,0.2   c-0.2,0.1-0.4,0.1-0.7,0.1c-0.3,0-0.7,0-1.2,0s-0.9,0-1.2,0c-0.3,0-0.5-0.1-0.7-0.1c-0.2-0.1-0.3-0.1-0.4-0.2   c-0.1-0.1-0.1-0.2-0.1-0.3v-17c0-0.1,0-0.2,0.1-0.3c0.1-0.1,0.2-0.2,0.3-0.2c0.2-0.1,0.4-0.1,0.6-0.1c0.3,0,0.6,0,1,0   c0.4,0,0.7,0,1,0c0.3,0,0.5,0.1,0.6,0.1c0.1,0.1,0.3,0.1,0.3,0.2c0.1,0.1,0.1,0.2,0.1,0.3v2.1c0.4-0.6,0.9-1.2,1.3-1.6   c0.4-0.4,0.8-0.7,1.1-1s0.7-0.4,1.1-0.5c0.4-0.1,0.7-0.1,1.1-0.1c0.2,0,0.3,0,0.5,0c0.2,0,0.4,0.1,0.6,0.1c0.2,0,0.4,0.1,0.5,0.2   c0.2,0.1,0.3,0.1,0.3,0.2c0.1,0.1,0.1,0.1,0.2,0.2c0,0.1,0.1,0.2,0.1,0.3c0,0.1,0,0.3,0.1,0.6S193.4,47.8,193.4,48.3z"
   id="path10" />
</g>

</svg>
